HIERARCHY
ROOT Hips
{
	OFFSET	0.00	0.00	0.00
	CHANNELS 6 Xposition Yposition Zposition Zrotation Xrotation Yrotation
	JOINT LeftUpLeg
	{
		OFFSET	 0.126116	-0.014019	-0.065224
		CHANNELS 3 Zrotation Xrotation Yrotation
		JOINT LeftLeg
		{
			OFFSET	 0.000000	 0.000000	 0.569914
			CHANNELS 3 Zrotation Xrotation Yrotation
			JOINT LeftFoot
			{
				OFFSET	 0.000000	 0.000000	 0.544423
				CHANNELS 3 Zrotation Xrotation Yrotation
				JOINT LeftToeBase
				{
					OFFSET	 0.000000	 0.000000	 0.207117
					CHANNELS 3 Zrotation Xrotation Yrotation
					End Site
					{
						OFFSET	 0.000000	 0.000000	 0.207117
					}
				}
			}
		}
	}
	JOINT RightUpLeg
	{
		OFFSET	-0.124023	-0.008373	-0.065224
		CHANNELS 3 Zrotation Xrotation Yrotation
		JOINT RightLeg
		{
			OFFSET	 0.000000	 0.000000	 0.570047
			CHANNELS 3 Zrotation Xrotation Yrotation
			JOINT RightFoot
			{
				OFFSET	 0.000000	 0.000000	 0.544354
				CHANNELS 3 Zrotation Xrotation Yrotation
				JOINT RightToeBase
				{
					OFFSET	 0.000000	 0.000000	 0.207540
					CHANNELS 3 Zrotation Xrotation Yrotation
					End Site
					{
						OFFSET	 0.000000	 0.000000	 0.207540
					}
				}
			}
		}
	}
	JOINT Spine
	{
		OFFSET	 0.000184	-0.007763	 0.117403
		CHANNELS 3 Zrotation Xrotation Yrotation
		JOINT Spine1
		{
			OFFSET	 0.000000	 0.000000	 0.137269
			CHANNELS 3 Zrotation Xrotation Yrotation
			JOINT Spine2
			{
				OFFSET	 0.000000	 0.000000	 0.156879
				CHANNELS 3 Zrotation Xrotation Yrotation
				JOINT LeftShoulder
				{
					OFFSET	 0.080501	-0.002496	 0.160144
					CHANNELS 3 Zrotation Xrotation Yrotation
					JOINT LeftArm
					{
						OFFSET	 0.000000	 0.000000	 0.164363
						CHANNELS 3 Zrotation Xrotation Yrotation
						JOINT LeftForeArm
						{
							OFFSET	 0.000000	 0.000000	 0.364576
							CHANNELS 3 Zrotation Xrotation Yrotation
							JOINT LeftHand
							{
								OFFSET	 0.000000	 0.000000	 0.360812
								CHANNELS 3 Zrotation Xrotation Yrotation
								JOINT LeftHandIndex1
								{
									OFFSET	 0.000000	 0.000000	 0.086006
									CHANNELS 3 Zrotation Xrotation Yrotation
									JOINT LeftHandIndex2
									{
										OFFSET	 0.000000	 0.000000	 0.047237
										CHANNELS 3 Zrotation Xrotation Yrotation
										JOINT LeftHandIndex3
										{
											OFFSET	-0.004284	-0.000551	 0.038165
											CHANNELS 3 Zrotation Xrotation Yrotation
											End Site
											{
												OFFSET	-0.004284	-0.000551	 0.038165
											}
										}
									}
								}
							}
						}
					}
				}
				JOINT Neck
				{
					OFFSET	 0.000000	 0.000000	 0.176489
					CHANNELS 3 Zrotation Xrotation Yrotation
					JOINT Head
					{
						OFFSET	 0.000000	-0.001747	 0.077940
						CHANNELS 3 Zrotation Xrotation Yrotation
						End Site
						{
							OFFSET	 0.000000	-0.001747	 0.077940
						}
					}
				}
				JOINT RightShoulder
				{
					OFFSET	-0.080363	 0.000306	 0.159706
					CHANNELS 3 Zrotation Xrotation Yrotation
					JOINT RightArm
					{
						OFFSET	 0.000000	 0.000000	 0.164196
						CHANNELS 3 Zrotation Xrotation Yrotation
						JOINT RightForeArm
						{
							OFFSET	 0.000000	 0.000000	 0.365611
							CHANNELS 3 Zrotation Xrotation Yrotation
							JOINT RightHand
							{
								OFFSET	 0.000000	 0.000000	 0.360648
								CHANNELS 3 Zrotation Xrotation Yrotation
								JOINT RightHandIndex1
								{
									OFFSET	 0.000000	 0.000000	 0.069977
									CHANNELS 3 Zrotation Xrotation Yrotation
									JOINT RightHandIndex2
									{
										OFFSET	 0.000000	 0.000000	 0.052305
										CHANNELS 3 Zrotation Xrotation Yrotation
										JOINT RightHandIndex3
										{
											OFFSET	 0.009002	-0.000782	 0.042196
											CHANNELS 3 Zrotation Xrotation Yrotation
											End Site
											{
												OFFSET	 0.009002	-0.000782	 0.042196
											}
										}
									}
								}
							}
						}
					}
				}
			}
		}
	}
}
MOTION
Frames:    5
Frame Time: 0.03333334
-0.738294	-0.106714	 1.240373	 168.390000	-7.902603	 3.401186	 3.715188	-2.040476	 174.374700	-2.070918	-35.772140	-2.067875	-63.687360	 78.354990	 53.706720	-2.385833	 28.452760	 0.000004	-28.353000	-11.172760	-171.186200	 11.170300	-38.457230	 7.141856	 12.178500	 79.864070	-14.402690	 2.384659	 28.388700	-0.000001	 3.683971	 4.290264	-20.205580	-0.300657	 16.634060	-5.105760	 25.927180	-8.585955	 22.218730	-91.776110	 78.527420	 179.999900	-13.727450	 39.683240	-24.187630	-33.017490	 18.883460	-53.711400	-38.926290	-36.070370	-22.564780	-4.130354	 21.526190	 0.991307	-5.167926	 0.731697	 3.519349	-1.378229	 35.397820	-2.634230	 14.779970	 5.326241	-3.452194	 12.237500	-15.040970	-3.221828	 89.782030	 78.203820	-180.000000	-64.596840	 6.574679	 77.827550	 9.531432	 1.767282	 144.195700	 20.020030	 38.280860	 18.334290	 5.716295	 19.173350	-3.684826	 5.027458	 0.246833	-9.377971	-2.350882	 35.473990	 5.254307
-0.738082	-0.108861	 1.239679	 167.679700	-8.180861	 3.635112	 2.933844	-1.831051	 174.910400	-1.697250	-35.572950	-1.840016	-62.081000	 78.674390	 51.663660	-2.385833	 28.452760	 0.000004	-29.178460	-11.490460	-170.850300	 11.557380	-38.181180	 7.344272	 10.019360	 79.233960	-12.566770	 2.384659	 28.388700	-0.000001	 6.790657	 3.888063	-20.922760	 0.609707	 17.799530	-4.663564	 26.372300	-10.903160	 23.159810	-91.776180	 78.527380	 180.000000	-21.899690	 36.192070	-26.012520	-31.647520	 20.512090	-58.697160	-40.738120	-36.347990	-23.822100	-4.130354	 21.526190	 0.991307	-5.167926	 0.731697	 3.519349	-1.378229	 35.397820	-2.634230	 15.077580	 5.351020	-4.473835	 11.958210	-16.904440	-3.700133	 89.782120	 78.203900	 180.000000	-63.317360	 2.476710	 81.156020	 10.918750	 0.718791	 141.909700	 11.285010	 34.648910	 21.439380	 5.716295	 19.173350	-3.684826	 5.027458	 0.246833	-9.377971	-2.350882	 35.473990	 5.254307
-0.737942	-0.110306	 1.239606	 167.034800	-8.351251	 3.293679	 2.002719	-1.253852	 175.563000	-1.360161	-34.974220	-1.619487	-60.543990	 78.733410	 49.838970	-2.385833	 28.452760	 0.000004	-29.843190	-11.919760	-170.401300	 11.969900	-38.359620	 7.635999	 8.210853	 79.431690	-10.895780	 2.384659	 28.388700	-0.000001	 9.995938	 3.037062	-21.003550	 2.072544	 18.642640	-4.734276	 26.563300	-12.473610	 23.604360	-91.776120	 78.527350	 180.000000	-28.536590	 34.806210	-31.466890	-31.166820	 21.161080	-60.494590	-42.227310	-36.406730	-24.635410	-4.130354	 21.526190	 0.991307	-5.167926	 0.731697	 3.519349	-1.378229	 35.397820	-2.634230	 15.157520	 5.867211	-5.053482	 11.838410	-19.031810	-3.486197	 89.782060	 78.203870	-180.000000	-60.509320	-1.402382	 84.099140	 12.598940	-0.798516	 139.502400	 3.101996	 30.690580	 23.624860	 5.716295	 19.173350	-3.684826	 5.027458	 0.246833	-9.377971	-2.350882	 35.473990	 5.254307
-0.741017	-0.110257	 1.240366	 166.398200	-8.710094	 3.238208	 0.689353	-0.197116	 176.108900	-0.915017	-34.584180	-1.350675	-63.238370	 79.175330	 52.094700	-2.385833	 28.452760	 0.000004	-30.702620	-11.564840	-169.838700	 12.330810	-38.008110	 7.806082	 7.453757	 79.420760	-10.438080	 2.384659	 28.388700	-0.000001	 13.401490	 2.731269	-21.739200	 3.973851	 19.078000	-5.856906	 26.619300	-13.360330	 24.375780	-91.776210	 78.527420	-180.000000	-32.577060	 34.843510	-39.581620	-31.612680	 20.979090	-59.371250	-43.410850	-36.429210	-25.058100	-4.130354	 21.526190	 0.991307	-5.167926	 0.731697	 3.519349	-1.378229	 35.397820	-2.634230	 14.920070	 5.302896	-5.104234	 11.560890	-19.784670	-3.784768	 89.782070	 78.203900	-180.000000	-57.812970	-5.360336	 86.988850	 14.238350	-2.649803	 135.975000	-5.108288	 27.105970	 25.204280	 5.716295	 19.173350	-3.684826	 5.027458	 0.246833	-9.377971	-2.350882	 35.473990	 5.254307
-0.745650	-0.109516	 1.241120	 165.834500	-9.433966	 2.999860	-0.040311	 0.860322	 176.831800	-0.631168	-34.290600	-1.180544	-63.101860	 79.162860	 51.767550	-2.385833	 28.452760	 0.000004	-31.456650	-11.431020	-169.080800	 12.738840	-37.764470	 8.021796	 5.591866	 79.395940	-8.822821	 2.384659	 28.388700	-0.000001	 17.197910	 2.747987	-22.453570	 6.380302	 18.967670	-7.465735	 26.275480	-14.085390	 25.064150	-91.776190	 78.527400	-180.000000	-32.729360	 34.613500	-47.874970	-32.455210	 20.294750	-56.821940	-43.397380	-36.089430	-24.410670	-4.130354	 21.526190	 0.991307	-5.167926	 0.731697	 3.519349	-1.378229	 35.397820	-2.634230	 14.331420	 5.406139	-4.756261	 10.990090	-21.578120	-4.882362	 89.782090	 78.203890	 180.000000	-52.931830	-7.955016	 90.975370	 15.394380	-4.600892	 131.192600	-11.123780	 23.609620	 24.378680	 5.716295	 19.173350	-3.684826	 5.027458	 0.246833	-9.377971	-2.350882	 35.473990	 5.254307
